# xmcd
#
# Track frame offsets:
#	150
#	16895
#	30551
#	47428
#	62382
#	78483
#	90599
#	107014
#	127067
#	139811
#	153874
#	170428
#	185054
#	198697
#	217931
#	218873
#
# Disc length: 2927
#
# Revision: 3
# Processed by: cddbd v1.5.1PL0 Copyright (c) Steve Scherf et al.
# Submitted via: VisiTrax 2.9.5.180 - For more info visit www.synapsa.com
# Normalized: r2:DSETVAR1
#
DISCID=d70b6d10
DTITLE=Various Artist - CDX 263 April 2001
DYEAR=2001
DGENRE=Country
TTITLE0=Lila McCann - Come A Little Closer
TTITLE1=B B Watson - Delta Dream
TTITLE2=Jo Dee Messina - Downtime
TTITLE3=Kristin Garner - Let's Burn It Down
TTITLE4=Trick Pony - On A Night Like This
TTITLE5=Trent Summar and The New Row Mob - Paint your name in purple
TTITLE6=Mary Chapin Carpenter - Simple Life
TTITLE7=SHeDaisy - Still Holding Out For You
TTITLE8=Kortney Kayle - Unbroken by you
TTITLE9=Keith Urban - Where the blacktop ends
TTITLE10=Lee Ann Womack - Why They Call It Falling
TTITLE11=Clarice Rose - A Mile A Minute
TTITLE12=Sure Shot - Country's What I Am
TTITLE13=Vince Hatfield - Please Come To Boston
TTITLE14=Linda Gail Lewis - Liners
TTITLE15=Linda Gail Lewis - Liners
EXTD=YEAR: 2001  ID3G:   2
EXTT0=
EXTT1=
EXTT2=
EXTT3=
EXTT4=
EXTT5=
EXTT6=
EXTT7=
EXTT8=
EXTT9=
EXTT10=
EXTT11=
EXTT12=
EXTT13=
EXTT14=
EXTT15=
PLAYORDER=
